<svg width="300" height="83" viewBox="0 0 300 83" fill="none" xmlns="http://www.w3.org/2000/svg">
<mask id="mask0_2167_9121" style="mask-type:luminance" maskUnits="userSpaceOnUse" x="87" y="12" width="11" height="12">
<path d="M87.5625 12.2959H97.5127V23.7436H87.5625V12.2959Z" fill="white"/>
</mask>
<g mask="url(#mask0_2167_9121)">
<path d="M87.7969 18.4198C87.7969 20.165 88.4421 21.7181 89.4527 22.7107C89.5926 22.8468 89.7403 22.9749 89.8958 23.087C90.0668 23.079 90.2378 23.071 90.4088 23.063C90.5643 23.055 90.712 23.055 90.8675 23.055C90.9607 23.047 91.054 23.047 91.1473 23.047C91.707 23.055 92.2745 23.079 92.842 23.127C93.0208 23.143 93.1995 23.159 93.3783 23.1751C93.5105 23.1911 93.6504 23.2071 93.7826 23.2231C93.8603 23.2311 93.9458 23.2471 94.0313 23.2551C94.1946 23.143 94.3578 23.023 94.5133 22.8869C95.6327 21.9022 96.3634 20.2691 96.3634 18.4198C96.3634 15.4258 94.4433 12.9922 92.0801 12.9922C89.717 12.9922 87.7969 15.4258 87.7969 18.4198Z" fill="black"/>
<path d="M88.1406 18.4201C88.1406 20.1573 88.8169 21.6943 89.8508 22.639C90.0296 22.7991 90.2162 22.9432 90.4105 23.0632C90.566 23.0552 90.7137 23.0552 90.8692 23.0552C90.9625 23.0472 91.0557 23.0472 91.149 23.0472C91.7087 23.0552 92.2762 23.0793 92.8437 23.1273C93.0225 23.1433 93.2013 23.1593 93.3801 23.1753C93.5122 23.1913 93.6521 23.2073 93.7843 23.2234C93.9864 23.1193 94.1807 22.9912 94.3673 22.8471C95.5489 21.9345 96.334 20.2934 96.334 18.4201C96.334 15.5542 94.4995 13.2246 92.2373 13.2246C89.9752 13.2246 88.1406 15.5542 88.1406 18.4201Z" fill="white"/>
</g>
<mask id="mask1_2167_9121" style="mask-type:luminance" maskUnits="userSpaceOnUse" x="87" y="14" width="9" height="10">
<path d="M87.5625 14.3457H95.5227V23.744H87.5625V14.3457Z" fill="white"/>
</mask>
<g mask="url(#mask1_2167_9121)">
<path d="M89.1406 19.4769C89.1406 20.7258 89.5837 21.8465 90.2911 22.575C90.4699 22.7591 90.6643 22.9192 90.8664 23.0553C90.9597 23.0473 91.0529 23.0473 91.1462 23.0473C91.7059 23.0553 92.2734 23.0794 92.8409 23.1274C93.0197 23.1434 93.1985 23.1594 93.3773 23.1754C93.5949 23.0713 93.797 22.9273 93.9836 22.7671C94.7998 22.0467 95.3284 20.8378 95.3284 19.4769C95.3284 17.2754 93.9447 15.4902 92.2345 15.4902C90.5243 15.4902 89.1406 17.2754 89.1406 19.4769Z" fill="#3A3A3A"/>
<path d="M89.3359 19.7335C89.3359 20.8943 89.7713 21.919 90.4398 22.5594C90.6497 22.7676 90.8907 22.9357 91.1472 23.0477C91.7069 23.0557 92.2744 23.0798 92.8418 23.1278C93.1061 23.0317 93.3549 22.8796 93.5803 22.6875C94.3344 22.0551 94.8241 20.9663 94.8241 19.7335C94.8241 17.7802 93.5959 16.2031 92.08 16.2031C90.5642 16.2031 89.3359 17.7802 89.3359 19.7335Z" fill="black"/>
</g>
<path d="M91.6288 18.0845C91.6288 18.2847 91.5511 18.4608 91.3956 18.6129C91.2401 18.757 91.0614 18.829 90.8437 18.829C90.626 18.829 90.4395 18.757 90.284 18.6129C90.1285 18.4608 90.0508 18.2847 90.0508 18.0845C90.0508 17.8764 90.1285 17.7003 90.284 17.5562C90.4395 17.4041 90.626 17.332 90.8437 17.332C91.0614 17.332 91.2401 17.4041 91.3956 17.5562C91.5511 17.7003 91.6288 17.8764 91.6288 18.0845Z" fill="white"/>
<path d="M92.4765 19.5335C92.4765 19.7816 92.3444 19.9097 92.08 19.9097C91.8157 19.9097 91.6836 19.7816 91.6836 19.5335C91.6836 19.2853 91.8157 19.1572 92.08 19.1572C92.3444 19.1572 92.4765 19.2853 92.4765 19.5335Z" fill="white"/>
<mask id="mask2_2167_9121" style="mask-type:luminance" maskUnits="userSpaceOnUse" x="87" y="20" width="11" height="4">
<path d="M87.2969 20.4941H97.5114V23.7443H87.2969V20.4941Z" fill="white"/>
</mask>
<g mask="url(#mask2_2167_9121)">
<path d="M87.2969 23.4646C87.3668 23.4566 87.4523 23.4326 87.5223 23.4246C87.6933 23.3846 87.8721 23.3525 88.0431 23.3205C88.6573 23.2085 89.2714 23.1284 89.8933 23.0884C90.0643 23.0804 90.2353 23.0724 90.4063 23.0644C90.5618 23.0563 90.7095 23.0563 90.865 23.0563C90.9583 23.0483 91.0515 23.0483 91.1448 23.0483C91.7045 23.0563 92.272 23.0804 92.8395 23.1284C93.0183 23.1444 93.1971 23.1604 93.3759 23.1764C93.508 23.1924 93.6479 23.2085 93.7801 23.2245C93.8578 23.2325 93.9433 23.2485 94.0288 23.2565C94.573 23.3285 95.1249 23.4166 95.6691 23.5207C96.0111 23.5767 96.3765 23.6568 96.7185 23.7208L96.7963 23.7288C96.8196 23.7368 96.8429 23.7368 96.874 23.7368C96.8584 23.7368 96.8507 23.7288 96.8351 23.7288C96.8196 23.7208 96.7496 23.6888 96.7341 23.6728C96.4076 23.5207 96.0811 23.3846 95.7468 23.2565C95.3504 23.1204 94.9384 22.9923 94.5108 22.8882C94.4642 22.8722 94.4175 22.8642 94.3631 22.8482C94.2387 22.8162 94.1066 22.7922 93.9822 22.7682C93.85 22.7361 93.7179 22.7121 93.578 22.6881C92.5441 22.512 91.4791 22.4559 90.4374 22.56C90.3908 22.568 90.3364 22.576 90.2897 22.576C90.142 22.592 89.9943 22.6161 89.8466 22.6401C89.7145 22.6561 89.5823 22.6801 89.4502 22.7121C88.8982 22.8242 88.3619 22.9843 87.8488 23.2004C87.7089 23.2565 87.5612 23.3285 87.429 23.3926C87.3824 23.4166 87.3435 23.4406 87.2969 23.4646Z" fill="black"/>
</g>
<mask id="mask3_2167_9121" style="mask-type:luminance" maskUnits="userSpaceOnUse" x="87" y="10" width="9" height="3">
<path d="M87.5625 10.0791H95.5227V12.2966H87.5625V10.0791Z" fill="white"/>
</mask>
<g mask="url(#mask3_2167_9121)">
<path d="M88.7734 11.9125C88.8745 11.5202 89.1854 11.144 89.5042 10.8958C90.2893 10.2714 91.3698 10.0793 92.3649 10.1913C92.6136 10.2154 92.8546 10.2554 93.0956 10.3194C93.2122 10.3434 93.3288 10.3835 93.4454 10.4235C93.4843 10.4395 93.5698 10.4635 93.6164 10.4795C93.733 10.5276 93.8418 10.5676 93.9507 10.6236C93.7952 10.6236 93.6475 10.6156 93.4998 10.6156C93.4065 10.6156 93.3132 10.6156 93.2277 10.6076C93.1811 10.6076 93.1034 10.6076 93.0489 10.6076C92.9323 10.6076 92.8157 10.6076 92.6991 10.6076C92.5436 10.6076 92.3882 10.6156 92.2405 10.6156C92.1472 10.6236 92.0539 10.6236 91.9606 10.6316C91.6341 10.6557 91.3076 10.6957 90.9889 10.7597C90.4914 10.8558 90.0094 11.0239 89.5819 11.2721C89.2787 11.4482 89.0066 11.6563 88.7734 11.9125Z" fill="black"/>
</g>
<mask id="mask4_2167_9121" style="mask-type:luminance" maskUnits="userSpaceOnUse" x="97" y="12" width="11" height="12">
<path d="M97.5117 12.2959H107.462V23.7436H97.5117V12.2959Z" fill="white"/>
</mask>
<g mask="url(#mask4_2167_9121)">
<path d="M107.438 18.3083C107.438 20.0535 106.792 21.6066 105.782 22.5992C105.642 22.7353 105.494 22.8634 105.339 22.9755C105.168 22.9675 104.997 22.9595 104.826 22.9515C104.678 22.9435 104.523 22.9435 104.367 22.9435C104.274 22.9435 104.18 22.9435 104.095 22.9435C103.527 22.9435 102.96 22.9675 102.4 23.0155C102.214 23.0315 102.035 23.0475 101.856 23.0715C101.724 23.0795 101.592 23.0956 101.452 23.1116C101.374 23.1276 101.289 23.1356 101.211 23.1436C101.04 23.0395 100.877 22.9114 100.721 22.7753C99.6018 21.7987 98.8711 20.1656 98.8711 18.3083C98.8711 15.3143 100.791 12.8887 103.154 12.8887C105.518 12.8887 107.438 15.3143 107.438 18.3083Z" fill="black"/>
<path d="M107.096 18.3088C107.096 20.046 106.419 21.583 105.386 22.5276C105.207 22.6877 105.028 22.8318 104.826 22.9519C104.678 22.9439 104.523 22.9439 104.367 22.9439C104.274 22.9439 104.181 22.9439 104.095 22.9439C103.528 22.9439 102.96 22.9679 102.4 23.016C102.214 23.032 102.035 23.048 101.856 23.072C101.724 23.08 101.592 23.096 101.452 23.112C101.25 23.008 101.056 22.8799 100.869 22.7358C99.6875 21.8312 98.9023 20.1821 98.9023 18.3088C98.9023 15.4429 100.737 13.1133 102.999 13.1133C105.261 13.1213 107.096 15.4429 107.096 18.3088Z" fill="white"/>
</g>
<mask id="mask5_2167_9121" style="mask-type:luminance" maskUnits="userSpaceOnUse" x="99" y="14" width="9" height="10">
<path d="M99.5039 14.3457H107.464V23.744H99.5039V14.3457Z" fill="white"/>
</mask>
<g mask="url(#mask5_2167_9121)">
<path d="M106.102 19.3646C106.102 20.6215 105.651 21.7342 104.944 22.4627C104.765 22.6548 104.578 22.8069 104.368 22.943C104.275 22.943 104.182 22.943 104.096 22.943C103.529 22.943 102.961 22.9671 102.402 23.0151C102.215 23.0311 102.036 23.0471 101.857 23.0711C101.64 22.959 101.438 22.823 101.251 22.6548C100.443 21.9344 99.9062 20.7335 99.9062 19.3646C99.9062 17.1631 101.29 15.3779 103 15.3779C104.71 15.3779 106.102 17.1631 106.102 19.3646Z" fill="#3A3A3A"/>
<path d="M105.898 19.6212C105.898 20.782 105.463 21.8067 104.794 22.4471C104.585 22.6553 104.344 22.8234 104.095 22.9434C103.527 22.9434 102.96 22.9675 102.4 23.0155C102.128 22.9194 101.879 22.7673 101.654 22.5752C100.908 21.9508 100.41 20.862 100.41 19.6212C100.41 17.6759 101.638 16.0908 103.154 16.0908C104.67 16.0908 105.898 17.6759 105.898 19.6212Z" fill="black"/>
</g>
<path d="M105.184 17.9722C105.184 18.1804 105.106 18.3565 104.95 18.5006C104.795 18.6447 104.608 18.7167 104.398 18.7167C104.181 18.7167 103.994 18.6447 103.839 18.5006C103.683 18.3565 103.605 18.1804 103.605 17.9722C103.605 17.7641 103.683 17.588 103.839 17.4439C103.994 17.2918 104.181 17.2197 104.398 17.2197C104.608 17.2197 104.795 17.2918 104.95 17.4439C105.106 17.588 105.184 17.7641 105.184 17.9722Z" fill="white"/>
<path d="M103.551 18.8126C103.551 19.0688 103.419 19.1888 103.154 19.1888C102.89 19.1888 102.766 19.0688 102.766 18.8126C102.766 18.5644 102.89 18.4443 103.154 18.4443C103.419 18.4443 103.551 18.5644 103.551 18.8126Z" fill="white"/>
<mask id="mask6_2167_9121" style="mask-type:luminance" maskUnits="userSpaceOnUse" x="97" y="20" width="11" height="4">
<path d="M97.5117 20.4941H107.936V23.7443H97.5117V20.4941Z" fill="white"/>
</mask>
<g mask="url(#mask6_2167_9121)">
<path d="M107.937 23.3597C107.867 23.3437 107.781 23.3277 107.711 23.3117C107.54 23.2796 107.361 23.2396 107.19 23.2076C106.576 23.0955 105.962 23.0235 105.34 22.9754C105.169 22.9674 104.998 22.9594 104.827 22.9514C104.679 22.9434 104.524 22.9434 104.368 22.9434C104.275 22.9434 104.182 22.9434 104.096 22.9434C103.529 22.9434 102.961 22.9674 102.402 23.0155C102.215 23.0315 102.036 23.0475 101.858 23.0715C101.725 23.0795 101.593 23.0955 101.453 23.1115C101.376 23.1275 101.29 23.1355 101.212 23.1435C100.66 23.2156 100.108 23.3037 99.5721 23.4077C99.2223 23.4718 98.8569 23.5438 98.5149 23.6079L98.4449 23.6239C98.4138 23.6239 98.3905 23.6319 98.3672 23.6319C98.375 23.6239 98.3905 23.6239 98.3983 23.6159C98.4216 23.6079 98.4838 23.5758 98.4993 23.5678C98.8258 23.4077 99.1523 23.2716 99.4944 23.1516C99.8908 23.0075 100.303 22.8794 100.723 22.7753C100.769 22.7593 100.816 22.7513 100.87 22.7353C100.995 22.7113 101.127 22.6792 101.251 22.6552C101.383 22.6232 101.523 22.5992 101.655 22.5752C102.689 22.399 103.754 22.351 104.796 22.4471C104.843 22.4551 104.897 22.4631 104.944 22.4631C105.091 22.4871 105.239 22.5031 105.387 22.5271C105.519 22.5512 105.651 22.5752 105.783 22.5992C106.335 22.7113 106.872 22.8714 107.385 23.0875C107.525 23.1436 107.672 23.2156 107.804 23.2876C107.851 23.3117 107.89 23.3357 107.937 23.3597Z" fill="black"/>
</g>
<mask id="mask7_2167_9121" style="mask-type:luminance" maskUnits="userSpaceOnUse" x="101" y="10" width="7" height="3">
<path d="M101.492 10.0791H107.462V12.2966H101.492V10.0791Z" fill="white"/>
</mask>
<g mask="url(#mask7_2167_9121)">
<path d="M106.787 11.9125C106.553 11.6563 106.281 11.4482 105.978 11.2721C105.543 11.0239 105.061 10.8558 104.571 10.7597C104.252 10.6957 103.926 10.6557 103.599 10.6316C103.506 10.6236 103.413 10.6236 103.32 10.6156C103.172 10.6156 103.016 10.6076 102.861 10.6076C102.744 10.6076 102.628 10.6076 102.511 10.6076C102.464 10.6076 102.379 10.6076 102.332 10.6076C102.247 10.6156 102.154 10.6156 102.06 10.6156C101.913 10.6156 101.765 10.6236 101.609 10.6236C101.718 10.5676 101.827 10.5276 101.944 10.4795C101.99 10.4635 102.068 10.4395 102.115 10.4235C102.231 10.3835 102.348 10.3434 102.464 10.3194C102.705 10.2554 102.946 10.2154 103.195 10.1913C104.19 10.0793 105.263 10.2714 106.048 10.8958C106.375 11.144 106.686 11.5202 106.787 11.9125Z" fill="black"/>
</g>
<path d="M15.8164 27.3827V24.4688H33.105V27.3827H25.9843V54.7612H22.9371V27.3827H15.8164Z" fill="#6941C6"/>
<path d="M40.2543 54.8565H37.207V21.458H40.2543V38.6536C40.8762 37.5489 41.6846 36.6363 42.6797 35.9318C43.7136 35.2113 44.9029 34.843 46.2555 34.843C47.6004 34.843 48.6965 35.0512 49.5516 35.4515C50.3756 35.8597 51.083 36.4041 51.666 37.0846C52.8243 38.4775 53.4073 40.3107 53.4073 42.5923V54.8565H50.36V42.5923C50.36 41.3354 50.0879 40.2467 49.5516 39.3261C48.9685 38.4295 48.0279 37.9812 46.722 37.9812C45.4315 37.9812 44.3899 38.1893 43.5814 38.5896C42.773 39.0379 42.12 39.6463 41.6225 40.4148C40.7052 41.8478 40.2543 43.9292 40.2543 46.659V54.8565Z" fill="#6941C6"/>
<path d="M77.8108 44.6095V46.2746H61.082C61.3696 47.9638 62.1703 49.3407 63.4762 50.4054C64.7978 51.4942 66.2747 52.0385 67.8917 52.0385C68.9644 52.0385 70.0139 51.7744 71.0322 51.238C72.0039 50.7497 72.8201 50.0452 73.4887 49.1246H76.9713C76.1628 50.9818 74.9501 52.4468 73.3332 53.5115C71.693 54.6243 70.0372 55.1767 68.3581 55.1767C66.6556 55.1767 65.2175 54.9045 64.0359 54.3761C62.8077 53.8478 61.7505 53.1193 60.8643 52.1986C58.9131 50.2373 57.9414 47.8277 57.9414 44.9618C57.9414 42.1439 58.9131 39.7262 60.8643 37.6929C62.7922 35.7075 65.132 34.7148 67.8917 34.7148C70.5191 34.7148 72.8357 35.6915 74.8257 37.6288C76.8158 39.5741 77.8108 41.9037 77.8108 44.6095ZM74.6392 43.5848C74.2816 41.9197 73.4731 40.5428 72.2138 39.454C70.9234 38.3893 69.4852 37.853 67.8917 37.853C65.4041 37.853 63.4529 38.9977 62.0459 41.2793C61.6106 41.9837 61.3074 42.7523 61.1441 43.5848H74.6392Z" fill="#6941C6"/>
<path d="M103.747 24.5762H110.23V43.0606C110.23 47.0954 109.165 50.1454 107.035 52.2108C104.897 54.2762 101.92 55.3009 98.0799 55.3009C94.2553 55.3009 91.2702 54.2762 89.1324 52.2108C86.9947 50.1454 85.9297 47.0954 85.9297 43.0606V24.5762H92.4207V42.068C92.4207 44.1494 92.8171 45.7665 93.6023 46.9112C94.403 48.056 95.8955 48.6244 98.0799 48.6244C100.303 48.6244 101.803 48.056 102.581 46.9112C103.358 45.7665 103.747 44.1494 103.747 42.068V24.5762ZM134.274 43.7251V54.8526H127.791V43.7251C127.791 42.5643 127.558 41.6757 127.099 41.0673C126.64 40.4589 125.902 40.1547 124.891 40.1547C123.881 40.1547 123.025 40.643 122.318 41.6117C121.611 42.5803 121.261 43.7251 121.261 45.062V54.8526H114.778V35.2234H121.261V37.625C121.922 36.7604 122.746 36.0719 123.741 35.5596C124.736 35.0392 125.855 34.7751 127.099 34.7751C129.664 34.7751 131.499 35.5996 132.61 37.2407C133.722 38.8898 134.274 41.0513 134.274 43.7251ZM138.472 28.4908C138.472 27.3941 138.837 26.4735 139.568 25.7209C140.306 24.9604 141.208 24.5762 142.273 24.5762C143.315 24.5762 144.209 24.9604 144.955 25.7209C145.701 26.4735 146.082 27.3941 146.082 28.4908C146.082 29.5635 145.701 30.4922 144.955 31.2607C144.209 32.0292 143.315 32.4135 142.273 32.4135C141.208 32.4135 140.306 32.0292 139.568 31.2607C138.837 30.4922 138.472 29.5635 138.472 28.4908ZM145.522 54.8526H139.031V35.2234H145.522V54.8526ZM159.095 40.3868V54.8526H152.659V40.3868H149.192V35.2234H152.659V27.7383H159.095V35.2234H162.562V40.3868H159.095ZM173.756 65.9881H167.009L171.339 54.8526H170.25L162.982 35.2234H169.52L174.059 49.2488L178.599 35.2234H185.168L177.9 54.8526L173.756 65.9881Z" stroke="black" stroke-width="1.08658"/>
<path d="M214.283 57.3228L204.644 30.937L195.005 57.3228L188.133 24.5647H191.242L195.782 46.5635L204.644 22.7715L213.475 46.5635L218.046 24.5647H221.124L214.283 57.3228Z" fill="#6941C6"/>
<path d="M239.93 45.0584C239.93 43.1612 239.292 41.496 238.033 40.0631C236.727 38.6381 235.126 37.9176 233.244 37.9176C231.332 37.9176 229.746 38.6381 228.487 40.0631C227.181 41.496 226.528 43.1612 226.528 45.0584C226.528 46.9637 227.181 48.6288 228.487 50.0538C229.746 51.4868 231.332 52.1993 233.244 52.1993C235.126 52.1993 236.727 51.4868 238.033 50.0538C239.292 48.6288 239.93 46.9637 239.93 45.0584ZM242.977 54.857H239.93V51.5268C239.759 51.767 239.588 51.9911 239.401 52.1993C237.598 54.2727 235.374 55.3054 232.747 55.3054C230.135 55.3054 227.927 54.2727 226.124 52.1993C224.382 50.1739 223.512 47.7963 223.512 45.0584C223.512 42.3286 224.382 39.951 226.124 37.9176C227.927 35.8522 230.135 34.8115 232.747 34.8115C235.374 34.8115 237.598 35.8522 239.401 37.9176C239.588 38.1338 239.759 38.3579 239.93 38.5901V35.2598H242.977V54.857Z" fill="#6941C6"/>
<path d="M259.228 39.3268C258.521 38.6703 257.767 38.3341 256.958 38.3341C256.189 38.3341 255.528 38.5583 254.968 39.0066C254.409 39.4789 253.927 40.0473 253.538 40.7037C252.831 42.0086 252.481 43.4576 252.481 45.0586V54.8573H249.434V35.26H252.481V39.3268L252.605 38.5262C253.616 36.0766 255.186 34.8438 257.301 34.8438C257.961 34.8438 258.606 34.9878 259.228 35.26V39.3268Z" fill="#6941C6"/>
<path d="M281.475 44.6095V46.2746H264.746C265.034 47.9638 265.834 49.3407 267.14 50.4054C268.462 51.4942 269.939 52.0385 271.556 52.0385C272.628 52.0385 273.678 51.7744 274.696 51.238C275.668 50.7497 276.484 50.0452 277.153 49.1246H280.635C279.827 50.9818 278.614 52.4468 276.997 53.5115C275.357 54.6243 273.701 55.1767 272.022 55.1767C270.32 55.1767 268.882 54.9045 267.7 54.3761C266.472 53.8478 265.415 53.1193 264.528 52.1986C262.577 50.2373 261.605 47.8277 261.605 44.9618C261.605 42.1439 262.577 39.7262 264.528 37.6929C266.456 35.7075 268.796 34.7148 271.556 34.7148C274.183 34.7148 276.5 35.6915 278.49 37.6288C280.48 39.5741 281.475 41.9037 281.475 44.6095ZM278.303 43.5848C277.946 41.9197 277.137 40.5428 275.878 39.454C274.587 38.3893 273.149 37.853 271.556 37.853C269.068 37.853 267.117 38.9977 265.71 41.2793C265.275 41.9837 264.971 42.7523 264.808 43.5848H278.303Z" fill="#6941C6"/>
</svg>
